{
  "header": {
    "PPQ": 480,
    "bpm": 125.0002604172092,
    "timeSignature": [
      2,
      4
    ],
    "name": "nyan3"
  },
  "startTime": 0,
  "duration": 14.877969004166674,
  "tracks": [
    {
      "startTime": 0,
      "duration": 0,
      "length": 0,
      "notes": [],
      "controlChanges": {},
      "id": 0,
      "name": "nyan3"
    },
    {
      "startTime": 0,
      "duration": 14.877969004166674,
      "length": 51,
      "notes": [
        {
          "name": "E5",
          "midi": 76,
          "time": 0,
          "velocity": 0.7874015748031497,
          "duration": 0.23799950416666668
        },
        {
          "name": "E5",
          "midi": 76,
          "time": 0.2399995,
          "velocity": 0.7874015748031497,
          "duration": 0.23799950416666668
        },
        {
          "name": "E5",
          "midi": 76,
          "time": 0.479999,
          "velocity": 0.7874015748031497,
          "duration": 0.4779990041666667
        },
        {
          "name": "E5",
          "midi": 76,
          "time": 0.959998,
          "velocity": 0.7874015748031497,
          "duration": 0.2379995041666666
        },
        {
          "name": "E5",
          "midi": 76,
          "time": 1.1999975,
          "velocity": 0.7874015748031497,
          "duration": 0.2379995041666667
        },
        {
          "name": "E5",
          "midi": 76,
          "time": 1.4399970000000002,
          "velocity": 0.7874015748031497,
          "duration": 0.47799900416666663
        },
        {
          "name": "E5",
          "midi": 76,
          "time": 1.9199960000000003,
          "velocity": 0.7874015748031497,
          "duration": 0.2379995041666665
        },
        {
          "name": "G5",
          "midi": 79,
          "time": 2.1599955,
          "velocity": 0.7874015748031497,
          "duration": 0.2379995041666665
        },
        {
          "name": "C5",
          "midi": 72,
          "time": 2.3999949999999997,
          "velocity": 0.7874015748031497,
          "duration": 0.3579992541666668
        },
        {
          "name": "D5",
          "midi": 74,
          "time": 2.7599942499999996,
          "velocity": 0.7874015748031497,
          "duration": 0.11799975416666664
        },
        {
          "name": "E5",
          "midi": 76,
          "time": 2.8799939999999995,
          "velocity": 0.7874015748031497,
          "duration": 0.47799900416666663
        },
        {
          "name": "F5",
          "midi": 77,
          "time": 3.8399919999999996,
          "velocity": 0.7874015748031497,
          "duration": 0.23799950416666693
        },
        {
          "name": "F5",
          "midi": 77,
          "time": 4.0799915,
          "velocity": 0.7874015748031497,
          "duration": 0.23799950416666693
        },
        {
          "name": "F5",
          "midi": 77,
          "time": 4.319991000000001,
          "velocity": 0.7874015748031497,
          "duration": 0.3579992541666668
        },
        {
          "name": "F5",
          "midi": 77,
          "time": 4.679990250000001,
          "velocity": 0.7874015748031497,
          "duration": 0.11799975416666708
        },
        {
          "name": "F5",
          "midi": 77,
          "time": 4.799990000000002,
          "velocity": 0.7874015748031497,
          "duration": 0.23799950416666693
        },
        {
          "name": "E5",
          "midi": 76,
          "time": 5.039989500000003,
          "velocity": 0.7874015748031497,
          "duration": 0.23799950416666693
        },
        {
          "name": "E5",
          "midi": 76,
          "time": 5.279989000000003,
          "velocity": 0.7874015748031497,
          "duration": 0.23799950416666693
        },
        {
          "name": "E5",
          "midi": 76,
          "time": 5.519988500000004,
          "velocity": 0.7874015748031497,
          "duration": 0.11799975416666708
        },
        {
          "name": "E5",
          "midi": 76,
          "time": 5.6399882500000045,
          "velocity": 0.7874015748031497,
          "duration": 0.11799975416666708
        },
        {
          "name": "E5",
          "midi": 76,
          "time": 5.759988000000005,
          "velocity": 0.7874015748031497,
          "duration": 0.23799950416666693
        },
        {
          "name": "D5",
          "midi": 74,
          "time": 5.999987500000006,
          "velocity": 0.7874015748031497,
          "duration": 0.23799950416666693
        },
        {
          "name": "D5",
          "midi": 74,
          "time": 6.239987000000006,
          "velocity": 0.7874015748031497,
          "duration": 0.23799950416666693
        },
        {
          "name": "C5",
          "midi": 72,
          "time": 6.479986500000007,
          "velocity": 0.7874015748031497,
          "duration": 0.23799950416666693
        },
        {
          "name": "D5",
          "midi": 74,
          "time": 6.719986000000008,
          "velocity": 0.7874015748031497,
          "duration": 0.47799900416666663
        },
        {
          "name": "G5",
          "midi": 79,
          "time": 7.199985000000008,
          "velocity": 0.7874015748031497,
          "duration": 0.47799900416666663
        },
        {
          "name": "E5",
          "midi": 76,
          "time": 7.679984000000008,
          "velocity": 0.7874015748031497,
          "duration": 0.23799950416666693
        },
        {
          "name": "E5",
          "midi": 76,
          "time": 7.919983500000009,
          "velocity": 0.7874015748031497,
          "duration": 0.23799950416666693
        },
        {
          "name": "E5",
          "midi": 76,
          "time": 8.15998300000001,
          "velocity": 0.7874015748031497,
          "duration": 0.4779990041666675
        },
        {
          "name": "E5",
          "midi": 76,
          "time": 8.63998200000001,
          "velocity": 0.7874015748031497,
          "duration": 0.23799950416666604
        },
        {
          "name": "E5",
          "midi": 76,
          "time": 8.87998150000001,
          "velocity": 0.7874015748031497,
          "duration": 0.23799950416666604
        },
        {
          "name": "E5",
          "midi": 76,
          "time": 9.11998100000001,
          "velocity": 0.7874015748031497,
          "duration": 0.4779990041666675
        },
        {
          "name": "E5",
          "midi": 76,
          "time": 9.599980000000011,
          "velocity": 0.7874015748031497,
          "duration": 0.23799950416666604
        },
        {
          "name": "G5",
          "midi": 79,
          "time": 9.83997950000001,
          "velocity": 0.7874015748031497,
          "duration": 0.23799950416666604
        },
        {
          "name": "C5",
          "midi": 72,
          "time": 10.07997900000001,
          "velocity": 0.7874015748031497,
          "duration": 0.3579992541666659
        },
        {
          "name": "D5",
          "midi": 74,
          "time": 10.43997825000001,
          "velocity": 0.7874015748031497,
          "duration": 0.1179997541666662
        },
        {
          "name": "E5",
          "midi": 76,
          "time": 10.55997800000001,
          "velocity": 0.7874015748031497,
          "duration": 0.4779990041666675
        },
        {
          "name": "F5",
          "midi": 77,
          "time": 11.51997600000001,
          "velocity": 0.7874015748031497,
          "duration": 0.23799950416666604
        },
        {
          "name": "F5",
          "midi": 77,
          "time": 11.75997550000001,
          "velocity": 0.7874015748031497,
          "duration": 0.23799950416666604
        },
        {
          "name": "F5",
          "midi": 77,
          "time": 11.99997500000001,
          "velocity": 0.7874015748031497,
          "duration": 0.3579992541666659
        },
        {
          "name": "F5",
          "midi": 77,
          "time": 12.35997425000001,
          "velocity": 0.7874015748031497,
          "duration": 0.1179997541666662
        },
        {
          "name": "F5",
          "midi": 77,
          "time": 12.47997400000001,
          "velocity": 0.7874015748031497,
          "duration": 0.23799950416666604
        },
        {
          "name": "E5",
          "midi": 76,
          "time": 12.719973500000009,
          "velocity": 0.7874015748031497,
          "duration": 0.23799950416666604
        },
        {
          "name": "E5",
          "midi": 76,
          "time": 12.959973000000009,
          "velocity": 0.7874015748031497,
          "duration": 0.23799950416666604
        },
        {
          "name": "E5",
          "midi": 76,
          "time": 13.199972500000008,
          "velocity": 0.7874015748031497,
          "duration": 0.1179997541666662
        },
        {
          "name": "E5",
          "midi": 76,
          "time": 13.319972250000008,
          "velocity": 0.7874015748031497,
          "duration": 0.1179997541666662
        },
        {
          "name": "G5",
          "midi": 79,
          "time": 13.439972000000008,
          "velocity": 0.7874015748031497,
          "duration": 0.23799950416666604
        },
        {
          "name": "G5",
          "midi": 79,
          "time": 13.679971500000008,
          "velocity": 0.7874015748031497,
          "duration": 0.23799950416666604
        },
        {
          "name": "F5",
          "midi": 77,
          "time": 13.919971000000007,
          "velocity": 0.7874015748031497,
          "duration": 0.23799950416666604
        },
        {
          "name": "D5",
          "midi": 74,
          "time": 14.159970500000007,
          "velocity": 0.7874015748031497,
          "duration": 0.23799950416666604
        },
        {
          "name": "C5",
          "midi": 72,
          "time": 14.399970000000007,
          "velocity": 0.7874015748031497,
          "duration": 0.4779990041666675
        }
      ],
      "controlChanges": {},
      "id": 1,
      "name": "HALion Sonic SE 01",
      "channelNumber": 0,
      "isPercussion": false
    },
    {
      "startTime": 0,
      "duration": 0,
      "length": 0,
      "notes": [],
      "controlChanges": {},
      "id": 2,
      "name": "ﾂマﾂーﾂカﾂー"
    }
  ]
}