{
  "header": {
    "PPQ": 480,
    "bpm": 120,
    "timeSignature": [
      2,
      4
    ],
    "name": "bpm120nyan_vo"
  },
  "startTime": 0,
  "duration": 15.497916666666667,
  "tracks": [
    {
      "startTime": 0,
      "duration": 0,
      "length": 0,
      "notes": [],
      "controlChanges": {},
      "id": 0,
      "name": "bpm120nyan_vo"
    },
    {
      "startTime": 0,
      "duration": 15.497916666666667,
      "length": 51,
      "notes": [
        {
          "name": "E5",
          "midi": 76,
          "time": 0,
          "velocity": 0.7874015748031497,
          "duration": 0.24791666666666667
        },
        {
          "name": "E5",
          "midi": 76,
          "time": 0.25,
          "velocity": 0.7874015748031497,
          "duration": 0.24791666666666667
        },
        {
          "name": "E5",
          "midi": 76,
          "time": 0.5,
          "velocity": 0.7874015748031497,
          "duration": 0.4979166666666667
        },
        {
          "name": "E5",
          "midi": 76,
          "time": 1,
          "velocity": 0.7874015748031497,
          "duration": 0.24791666666666679
        },
        {
          "name": "E5",
          "midi": 76,
          "time": 1.2500000000000002,
          "velocity": 0.7874015748031497,
          "duration": 0.24791666666666656
        },
        {
          "name": "E5",
          "midi": 76,
          "time": 1.5000000000000002,
          "velocity": 0.7874015748031497,
          "duration": 0.49791666666666656
        },
        {
          "name": "E5",
          "midi": 76,
          "time": 2,
          "velocity": 0.7874015748031497,
          "duration": 0.24791666666666679
        },
        {
          "name": "G5",
          "midi": 79,
          "time": 2.25,
          "velocity": 0.7874015748031497,
          "duration": 0.24791666666666679
        },
        {
          "name": "C5",
          "midi": 72,
          "time": 2.5,
          "velocity": 0.7874015748031497,
          "duration": 0.3729166666666668
        },
        {
          "name": "D5",
          "midi": 74,
          "time": 2.875,
          "velocity": 0.7874015748031497,
          "duration": 0.12291666666666679
        },
        {
          "name": "E5",
          "midi": 76,
          "time": 3,
          "velocity": 0.7874015748031497,
          "duration": 0.4979166666666668
        },
        {
          "name": "F5",
          "midi": 77,
          "time": 4,
          "velocity": 0.7874015748031497,
          "duration": 0.24791666666666679
        },
        {
          "name": "F5",
          "midi": 77,
          "time": 4.25,
          "velocity": 0.7874015748031497,
          "duration": 0.24791666666666679
        },
        {
          "name": "F5",
          "midi": 77,
          "time": 4.5,
          "velocity": 0.7874015748031497,
          "duration": 0.3729166666666668
        },
        {
          "name": "F5",
          "midi": 77,
          "time": 4.875,
          "velocity": 0.7874015748031497,
          "duration": 0.12291666666666679
        },
        {
          "name": "F5",
          "midi": 77,
          "time": 5,
          "velocity": 0.7874015748031497,
          "duration": 0.24791666666666679
        },
        {
          "name": "E5",
          "midi": 76,
          "time": 5.25,
          "velocity": 0.7874015748031497,
          "duration": 0.24791666666666679
        },
        {
          "name": "E5",
          "midi": 76,
          "time": 5.5,
          "velocity": 0.7874015748031497,
          "duration": 0.24791666666666679
        },
        {
          "name": "E5",
          "midi": 76,
          "time": 5.75,
          "velocity": 0.7874015748031497,
          "duration": 0.12291666666666679
        },
        {
          "name": "E5",
          "midi": 76,
          "time": 5.875,
          "velocity": 0.7874015748031497,
          "duration": 0.12291666666666679
        },
        {
          "name": "E5",
          "midi": 76,
          "time": 6,
          "velocity": 0.7874015748031497,
          "duration": 0.24791666666666679
        },
        {
          "name": "D5",
          "midi": 74,
          "time": 6.25,
          "velocity": 0.7874015748031497,
          "duration": 0.24791666666666679
        },
        {
          "name": "D5",
          "midi": 74,
          "time": 6.5,
          "velocity": 0.7874015748031497,
          "duration": 0.24791666666666679
        },
        {
          "name": "C5",
          "midi": 72,
          "time": 6.75,
          "velocity": 0.7874015748031497,
          "duration": 0.24791666666666679
        },
        {
          "name": "D5",
          "midi": 74,
          "time": 7,
          "velocity": 0.7874015748031497,
          "duration": 0.4979166666666668
        },
        {
          "name": "G5",
          "midi": 79,
          "time": 7.5,
          "velocity": 0.7874015748031497,
          "duration": 0.4979166666666668
        },
        {
          "name": "E5",
          "midi": 76,
          "time": 8,
          "velocity": 0.7874015748031497,
          "duration": 0.24791666666666679
        },
        {
          "name": "E5",
          "midi": 76,
          "time": 8.25,
          "velocity": 0.7874015748031497,
          "duration": 0.24791666666666679
        },
        {
          "name": "E5",
          "midi": 76,
          "time": 8.5,
          "velocity": 0.7874015748031497,
          "duration": 0.4979166666666668
        },
        {
          "name": "E5",
          "midi": 76,
          "time": 9,
          "velocity": 0.7874015748031497,
          "duration": 0.24791666666666679
        },
        {
          "name": "E5",
          "midi": 76,
          "time": 9.25,
          "velocity": 0.7874015748031497,
          "duration": 0.24791666666666679
        },
        {
          "name": "E5",
          "midi": 76,
          "time": 9.5,
          "velocity": 0.7874015748031497,
          "duration": 0.4979166666666668
        },
        {
          "name": "E5",
          "midi": 76,
          "time": 10,
          "velocity": 0.7874015748031497,
          "duration": 0.24791666666666679
        },
        {
          "name": "G5",
          "midi": 79,
          "time": 10.25,
          "velocity": 0.7874015748031497,
          "duration": 0.24791666666666679
        },
        {
          "name": "C5",
          "midi": 72,
          "time": 10.5,
          "velocity": 0.7874015748031497,
          "duration": 0.3729166666666668
        },
        {
          "name": "D5",
          "midi": 74,
          "time": 10.875,
          "velocity": 0.7874015748031497,
          "duration": 0.12291666666666679
        },
        {
          "name": "E5",
          "midi": 76,
          "time": 11,
          "velocity": 0.7874015748031497,
          "duration": 0.4979166666666668
        },
        {
          "name": "F5",
          "midi": 77,
          "time": 12,
          "velocity": 0.7874015748031497,
          "duration": 0.24791666666666679
        },
        {
          "name": "F5",
          "midi": 77,
          "time": 12.25,
          "velocity": 0.7874015748031497,
          "duration": 0.24791666666666679
        },
        {
          "name": "F5",
          "midi": 77,
          "time": 12.5,
          "velocity": 0.7874015748031497,
          "duration": 0.3729166666666668
        },
        {
          "name": "F5",
          "midi": 77,
          "time": 12.875,
          "velocity": 0.7874015748031497,
          "duration": 0.12291666666666679
        },
        {
          "name": "F5",
          "midi": 77,
          "time": 13,
          "velocity": 0.7874015748031497,
          "duration": 0.24791666666666679
        },
        {
          "name": "E5",
          "midi": 76,
          "time": 13.25,
          "velocity": 0.7874015748031497,
          "duration": 0.24791666666666679
        },
        {
          "name": "E5",
          "midi": 76,
          "time": 13.5,
          "velocity": 0.7874015748031497,
          "duration": 0.24791666666666679
        },
        {
          "name": "E5",
          "midi": 76,
          "time": 13.75,
          "velocity": 0.7874015748031497,
          "duration": 0.12291666666666679
        },
        {
          "name": "E5",
          "midi": 76,
          "time": 13.875,
          "velocity": 0.7874015748031497,
          "duration": 0.12291666666666679
        },
        {
          "name": "G5",
          "midi": 79,
          "time": 14,
          "velocity": 0.7874015748031497,
          "duration": 0.24791666666666679
        },
        {
          "name": "G5",
          "midi": 79,
          "time": 14.25,
          "velocity": 0.7874015748031497,
          "duration": 0.24791666666666679
        },
        {
          "name": "F5",
          "midi": 77,
          "time": 14.5,
          "velocity": 0.7874015748031497,
          "duration": 0.24791666666666679
        },
        {
          "name": "D5",
          "midi": 74,
          "time": 14.75,
          "velocity": 0.7874015748031497,
          "duration": 0.24791666666666679
        },
        {
          "name": "C5",
          "midi": 72,
          "time": 15,
          "velocity": 0.7874015748031497,
          "duration": 0.4979166666666668
        }
      ],
      "controlChanges": {},
      "id": 1,
      "name": "vo",
      "channelNumber": 0,
      "isPercussion": false
    },
    {
      "startTime": 3,
      "duration": 11.747916666666667,
      "length": 6,
      "notes": [
        {
          "name": "E5",
          "midi": 76,
          "time": 3,
          "velocity": 0.7874015748031497,
          "duration": 0.24791666666666679
        },
        {
          "name": "E5",
          "midi": 76,
          "time": 3.25,
          "velocity": 0.7874015748031497,
          "duration": 0.24791666666666679
        },
        {
          "name": "E5",
          "midi": 76,
          "time": 3.5,
          "velocity": 0.7874015748031497,
          "duration": 0.24791666666666679
        },
        {
          "name": "E5",
          "midi": 76,
          "time": 11,
          "velocity": 0.7874015748031497,
          "duration": 0.24791666666666679
        },
        {
          "name": "E5",
          "midi": 76,
          "time": 11.25,
          "velocity": 0.7874015748031497,
          "duration": 0.24791666666666679
        },
        {
          "name": "E5",
          "midi": 76,
          "time": 11.5,
          "velocity": 0.7874015748031497,
          "duration": 0.24791666666666679
        }
      ],
      "controlChanges": {},
      "id": 2,
      "name": "ainote",
      "channelNumber": 0,
      "isPercussion": false
    },
    {
      "startTime": 0,
      "duration": 0,
      "length": 0,
      "notes": [],
      "controlChanges": {},
      "id": 3,
      "name": "a"
    }
  ]
}