<!-- Generator: Adobe Illustrator 22.0.1, SVG Export Plug-In  -->
<svg version="1.1"
	 xmlns="http://www.w3.org/2000/svg" xmlns:xlink="http://www.w3.org/1999/xlink" xmlns:a="http://ns.adobe.com/AdobeSVGViewerExtensions/3.0/"
	 x="0px" y="0px" width="111px" height="111px" viewBox="0 0 111 111" style="enable-background:new 0 0 111 111;"
	 xml:space="preserve">
<style type="text/css">
	.st0{fill:none;}
	.st1{fill:none;stroke:#00B85C;stroke-width:2.88;}
	.st2{fill:url(#SVGID_1_);}
	.st3{fill:url(#SVGID_2_);}
</style>
<defs>

		<pattern  x="-131" y="-261" width="72" height="72" patternUnits="userSpaceOnUse" id="_x31_0_lpi_40_x25__2" viewBox="72.3 -72 72 72" style="overflow:visible;">
		<g>
			<rect x="72.3" y="-72" class="st0" width="72" height="72"/>
			<g>
				<line class="st1" x1="144" y1="-3.6" x2="216.5" y2="-3.6"/>
				<line class="st1" x1="144" y1="-18" x2="216.5" y2="-18"/>
				<line class="st1" x1="144" y1="-32.4" x2="216.5" y2="-32.4"/>
				<line class="st1" x1="144" y1="-46.8" x2="216.5" y2="-46.8"/>
				<line class="st1" x1="144" y1="-61.2" x2="216.5" y2="-61.2"/>
				<line class="st1" x1="144" y1="-10.8" x2="216.5" y2="-10.8"/>
				<line class="st1" x1="144" y1="-25.2" x2="216.5" y2="-25.2"/>
				<line class="st1" x1="144" y1="-39.6" x2="216.5" y2="-39.6"/>
				<line class="st1" x1="144" y1="-54" x2="216.5" y2="-54"/>
				<line class="st1" x1="144" y1="-68.4" x2="216.5" y2="-68.4"/>
			</g>
			<g>
				<line class="st1" x1="72" y1="-3.6" x2="144.5" y2="-3.6"/>
				<line class="st1" x1="72" y1="-18" x2="144.5" y2="-18"/>
				<line class="st1" x1="72" y1="-32.4" x2="144.5" y2="-32.4"/>
				<line class="st1" x1="72" y1="-46.8" x2="144.5" y2="-46.8"/>
				<line class="st1" x1="72" y1="-61.2" x2="144.5" y2="-61.2"/>
				<line class="st1" x1="72" y1="-10.8" x2="144.5" y2="-10.8"/>
				<line class="st1" x1="72" y1="-25.2" x2="144.5" y2="-25.2"/>
				<line class="st1" x1="72" y1="-39.6" x2="144.5" y2="-39.6"/>
				<line class="st1" x1="72" y1="-54" x2="144.5" y2="-54"/>
				<line class="st1" x1="72" y1="-68.4" x2="144.5" y2="-68.4"/>
			</g>
			<g>
				<line class="st1" x1="0" y1="-3.6" x2="72.5" y2="-3.6"/>
				<line class="st1" x1="0" y1="-18" x2="72.5" y2="-18"/>
				<line class="st1" x1="0" y1="-32.4" x2="72.5" y2="-32.4"/>
				<line class="st1" x1="0" y1="-46.8" x2="72.5" y2="-46.8"/>
				<line class="st1" x1="0" y1="-61.2" x2="72.5" y2="-61.2"/>
				<line class="st1" x1="0" y1="-10.8" x2="72.5" y2="-10.8"/>
				<line class="st1" x1="0" y1="-25.2" x2="72.5" y2="-25.2"/>
				<line class="st1" x1="0" y1="-39.6" x2="72.5" y2="-39.6"/>
				<line class="st1" x1="0" y1="-54" x2="72.5" y2="-54"/>
				<line class="st1" x1="0" y1="-68.4" x2="72.5" y2="-68.4"/>
			</g>
		</g>
	</pattern>
</defs>
<pattern  id="SVGID_1_" xlink:href="#_x31_0_lpi_40_x25__2" patternTransform="matrix(0.7071 -0.7071 0.7071 0.7071 2712.9417 -7346.7397)">
</pattern>
<rect class="st2" width="111" height="111"/>
</svg>
