<!-- Generator: Adobe Illustrator 22.0.1, SVG Export Plug-In  -->
<svg version="1.1"
	 xmlns="http://www.w3.org/2000/svg" xmlns:xlink="http://www.w3.org/1999/xlink" xmlns:a="http://ns.adobe.com/AdobeSVGViewerExtensions/3.0/"
	 x="0px" y="0px" width="29px" height="29px" viewBox="0 0 29 29" style="enable-background:new 0 0 29 29;" xml:space="preserve">
<style type="text/css">
	.st0{fill:none;stroke:#FFFFFF;stroke-width:2;stroke-miterlimit:10;}
	.st1{fill:#FFFFFF;}
</style>
<defs>
</defs>
<circle class="st0" cx="14.5" cy="14.5" r="13.5"/>
<g>
	<path class="st1" d="M16.1,8c0,0.9-0.7,1.6-1.6,1.6C13.7,9.6,13,8.9,13,8c0-0.8,0.7-1.6,1.6-1.6C15.4,6.4,16.1,7.2,16.1,8z M16,20
		c0,0.8-0.3,1.3-1.4,1.3c-0.9,0-1.5-0.3-1.5-1.3v-8.4c0-0.6,0.1-1.3,1.4-1.3c0.8,0,1.5,0.2,1.5,1.3V20z"/>
</g>
</svg>
