<?xml version="1.0" encoding="utf-8"?>
<!-- Generator: Adobe Illustrator 22.0.1, SVG Export Plug-In . SVG Version: 6.00 Build 0)  -->
<svg version="1.1" id="レイヤー_1" xmlns="http://www.w3.org/2000/svg" xmlns:xlink="http://www.w3.org/1999/xlink" x="0px"
	 y="0px" viewBox="0 0 343 110.8" style="enable-background:new 0 0 343 110.8;" xml:space="preserve">
<style type="text/css">
	.st0{fill:#0000FF;}
	.st1{fill:#00FF33;}
	.st2{fill:#33FF00;}
	.st3{fill:#FFFF00;}
</style>
<g>
	<path class="st0" d="M35.5,32c-0.5,0.7-3.4,4-4,4.7c-1.7,2.1-7.3,8.8-12.8,16.5c-1.1,1.6-3.9,5.5-5.9,8.8c-0.4,0.7-2.9,4.9-3.2,5.2
		c-1,1.4-3,3.7-6.7,3.7c-2.8,0-2.2-1.6-1.2-3.7c0.5-1.1,3.3-5.7,8.1-12.4C18.2,43,26.2,33.5,28,31.6c2.5-2.6,4.1-2.6,6-2.6
		C35,28.9,37.5,29.2,35.5,32z M39.6,67.6c-2.9,1-9.8,1.2-11.5,1.2c-8,0-15.1-1.3-9.1-9.7c0,0,5.8-8.1,11.1-8.1c1.9,0,3.6,1,2.2,3
		c-0.6,0.9-1,1.2-2.9,2.7c-1.3,1.1-1.9,1.6-2.2,2c-1.3,1.9,0.3,2.6,5.1,2.6c2.3,0,5-0.3,6.4-0.5c0.7-0.1,4.1-0.6,4.7-0.6
		c2.5,0,2.5,1.5,0.9,3.6C42.6,66.3,41.1,67.1,39.6,67.6z M56.4,39.5c-0.8,0-4.2,0-4.9,0c-2.1,0-7.8,0.1-12.1,0.3
		c-0.1,0-1.2,0.1-1.5,0.1c-2.3,0-3.1-1.1-1.2-3.8c2.3-3.2,4.6-3.5,5.6-3.7c1.2-0.2,7.3-0.5,15-0.5c1.5,0,5.3,0,6.2,0.3
		c1.3,0.3,0.9,1.8-0.3,3.5C60.8,39.2,58.2,39.5,56.4,39.5z"/>
	<path class="st0" d="M69,42.4c0.4-1,0.6-1.4,1-2c2-2.8,5.2-3.2,6.1-3.2c1.8,0,1.9,0.9,1.7,1.8c-0.1,0.7-0.5,1.5-2.1,4.9
		c1.6-0.4,3.9-1,4.8-1.3c0.1-0.3,0.3-0.7,0.5-1.7c0.3-1.3,0.6-1.8,0.9-2.2c1.6-2.3,4.6-2.9,5.6-2.9c0.5,0,2,0.1,1.8,1.6
		c-0.2,1.2-0.5,2.5-0.9,3.6c0.9,0,1.9-0.1,2.8-0.1c6.3,0,7.3,4.1,2.7,10.6c-2.2,3-5.6,6.5-9.2,8.7c-3.9,2.4-7.6,3-10.5,3
		c-0.5,0-4.3,0-5.1-1.5c-0.3-0.6,0.1-1.6,0.8-2.6c1-1.4,2.9-3.1,5-3.1c0.6,0,0.9,0,2.5,0.4c0.4,0.1,0.9,0.1,1.3,0.1
		c1.4,0,4.8-0.1,8.4-5.1c2.3-3.2,1.1-4-0.9-4.2c-0.7,1.6-0.9,2.1-1.5,2.8c-2,2.8-4.8,3.3-6,3.3c-0.9,0-1.9-0.3-1.8-1.2
		c0.1-0.6,0.2-0.9,1.3-3.5c-2.6,0.7-3.8,1.1-5.3,1.5c-0.9,1.8-2.7,5.9-4.1,8.7c-0.9,2-3.8,8-4.9,9.6c-1.9,2.6-4.7,3.2-6.2,3.2
		c-2.9,0-1.8-2.1-0.9-3.8c2.9-5.3,3.7-6.9,7.5-15c-1.5,0.5-4.3,1.5-5.4,1.5c-2.1,0-1.9-1.9-0.7-3.7c1.4-2,2.7-2.7,9.1-4.6
		C67.6,45.8,68.7,43,69,42.4z"/>
	<path class="st0" d="M124.3,45.4c5.4,0,5.1,3.4,1.7,8.3c-0.7,1-4.3,5.5-4.9,6.5c-0.5,0.8-1.4,2-0.9,2.8c0.3,0.4,0.8,0.4,1.2,0.4
		c3.5,0,7.7-4.5,10.5-7.7c0.9-1.1,4.5-5.8,5.3-6.7c0.7-0.8,2.5-2.8,5.8-2.8c4,0,2,2.9,1,4.3c-2.6,3.7-6.9,8.7-10.7,12.2
		c-1.4,1.3-7.3,6.6-13.9,8c-2.1,0.4-3.5,0.4-4,0.4c-2.2,0-5.6-0.5-5.4-3.4c0.2-2.4,1.7-4.5,2.8-6c0.7-1,3.9-5.1,4.5-6
		c0.9-1.2,2.2-3.1-0.6-3.1c-1.2,0-5.3,0.6-12.7,7.7c-0.8,0.8-2.6,2.6-5.7,5.8c-2.5,2.7-4.3,4.5-7.2,4.5c-1.9,0-3.3-1.2-1.6-3.6
		c0.6-0.9,1.2-1.5,3.5-3.8c9-9,18.1-17.9,27.4-26.7c1.3-1.3,6.1-5.8,7-6.5c0.6-0.5,2.4-1.8,4.4-1.8c1,0,3.9,0.5,1.9,3.3
		c-0.8,1.1-1.6,1.8-6.4,6.2c-6.4,5.9-7.2,6.5-8.6,7.8c-0.5,0.5-1,0.9-2.2,2.1C119.1,46.5,121.4,45.4,124.3,45.4z"/>
	<path class="st0" d="M158.9,44.6c22.4-9.1,25.1-10.3,33.5-14.6c1.8-0.9,3.4-1.7,4.9-1.7c2,0,3.4,1.3,1.6,3.8
		c-1,1.4-2.2,2.5-7.1,4.8c-8.8,4-17.5,7.4-26.3,10.6c-2.9,1.1-3.9,1.5-4.4,2.2c-0.4,0.6-0.3,1.1,0.8,1.8c3.4,2.2,9.1,5.9,13.5,11
		c1.3,1.5,2.2,2.6,0.6,4.8c-1.3,1.8-4.7,4.2-7.2,4.2c-1.5,0-2.2-0.6-2.9-1.5c-3.7-5.3-4.8-7-9.8-11c-0.8-0.6-4.4-3.2-5.1-3.8
		c-1.3-1.2-1.7-2.7,0.1-5.2C153.4,46.9,156.7,45.5,158.9,44.6z M183.9,43.5c0-0.3,0.3-0.8,0.5-1.1c0.7-1,2.3-1.5,3-1.5
		c0.8,0,0.9,0.6,0.7,2.2c0,0.1-0.6,3.1-1.4,4.2c-0.9,1.2-2.4,1.6-3.1,1.6c-0.2,0-0.9,0-0.6-1c0-0.3,0.5-1.9,0.6-2.3
		C183.6,45.2,183.9,43.8,183.9,43.5z M190.7,40.8c0-0.2,0.2-0.5,0.5-0.9c0.7-1,2.3-1.5,3-1.5c0.9,0,0.9,0.6,0.7,2.1
		c-0.2,1.1-0.6,3.3-1.4,4.3c-0.8,1.2-2.3,1.6-3,1.6c-0.2,0-0.9,0-0.7-1c0-0.3,0.5-1.9,0.6-2.3C190.4,42.8,190.6,41.1,190.7,40.8z"/>
	<path class="st0" d="M229.9,42.8c2.5,0,4.8,0.5,6.5,1.6c3.2,2.1,2,6.9-1.5,11.7c-2.7,3.8-8.5,10-18,13.3c-4.6,1.6-8.8,2-12.6,2
		c-5.9,0-7.9-1.2-9-2.5c-1.2-1.3-0.8-3.7,1-6.2c4.2-5.9,11.2-8.6,16.7-8.6c3,0,9.2,0.8,4,8.1c-0.4,0.6-0.9,1.1-1.5,1.8
		c6.2-1.4,9.9-5.8,10.9-7.3c1.4-2,2.9-5.2,0.5-6.6c-1.3-0.8-3.5-0.9-4.8-0.9c-3.9,0-9.9,0.9-19.8,6.4c-5.3,2.9-5.7,3.1-6.9,3.1
		c-1.9,0-2.8-1.7-1.1-4.1c1.2-1.6,2.1-2.1,7.3-4.6c9.6-4.6,16.7-8.1,24.8-12.2c0.9-0.4,1.5-0.8,2.6-1.4c-2.2,0-13.1,0.8-14.2,0.8
		c-1.2,0-3.8-0.1-1.2-3.7c2.4-3.4,5.1-3.6,6.7-3.7c12.6-0.2,13.7-0.2,19.9-0.4c0.5,0,1.6,0,2.6,0c1.4,0,4.4,0,2.1,3.4
		c-1.8,2.5-2.7,2.9-10.5,6.2c-4.2,1.8-7.5,3.4-9.4,4.3C226.3,43.1,227.9,42.8,229.9,42.8z M210.3,63.5c1.9-2.6,0.5-3.3-1.4-3.3
		c-2.2,0-4.6,1-5.7,2.5c-1.1,1.6,0.1,2.7,3.5,2.7c0.7,0,1.3-0.1,2.2-0.2C209.9,64.1,210.2,63.7,210.3,63.5z"/>
	<path class="st0" d="M278.2,41.4c-0.3,9.1,0.6,13.6,1.9,17.8c0.7,2,0.8,3.1-0.3,4.7c-1.6,2.3-5.2,4.6-7.7,4.6
		c-1.5,0-2.4-0.4-3.1-5.1c-0.7-4.6-0.5-9.7-0.1-18c0.1-2.8-0.2-3.4-1-3.4c-1.1,0-2,0.6-6.9,4.4c-1.2,0.9-8.1,6.3-10.5,8
		c-2.9,2.2-4.5,3.1-6.1,3.1c-2,0-3.7-1.5-1.8-4.2c1.1-1.5,3-2.8,4.9-4.1c4.3-2.9,10.4-7.3,16.1-11.5c4.8-3.5,7.6-5.2,10.8-5.2
		C278.4,32.5,278.4,34.1,278.2,41.4z M286.6,33.9c0-0.2,0.2-0.5,0.4-0.8c0.8-1.1,2.4-1.5,3-1.5c0.8,0,0.9,0.6,0.6,2.3
		c-0.1,0.6-0.5,3-1.3,4.1c-0.9,1.3-2.5,1.6-3.1,1.6c-0.8,0-0.8-0.4-0.7-1.1c0-0.3,0.5-1.9,0.6-2.2C286.2,35.9,286.5,34.3,286.6,33.9
		z M292.8,32.9c0.1-0.2,0.2-0.6,0.4-0.9c0.7-1,2.3-1.5,3-1.5s0.9,0.4,0.7,2.2c-0.1,0.5-0.5,3.1-1.3,4.2c-0.8,1.1-2.2,1.6-3.1,1.6
		c-0.2,0-0.9,0-0.7-1c0-0.3,0.5-2,0.6-2.3S292.7,33.3,292.8,32.9z"/>
	<path class="st0" d="M326.2,42.8c2.5,0,4.8,0.5,6.5,1.6c3.2,2.1,2,6.9-1.5,11.7c-2.7,3.8-8.5,10-18,13.3c-4.6,1.6-8.8,2-12.6,2
		c-5.9,0-7.9-1.2-9-2.5c-1.2-1.3-0.8-3.7,1-6.2c4.2-5.9,11.2-8.6,16.7-8.6c3,0,9.2,0.8,4,8.1c-0.4,0.6-0.9,1.1-1.5,1.8
		c6.2-1.4,9.9-5.8,10.9-7.3c1.4-2,2.9-5.2,0.5-6.6c-1.3-0.8-3.5-0.9-4.8-0.9c-3.9,0-9.9,0.9-19.8,6.4c-5.3,2.9-5.7,3.1-6.9,3.1
		c-1.9,0-2.8-1.7-1.1-4.1c1.2-1.6,2.1-2.1,7.3-4.6c9.6-4.6,16.7-8.1,24.8-12.2c0.9-0.4,1.5-0.8,2.6-1.4c-2.2,0-13.1,0.8-14.2,0.8
		c-1.2,0-3.8-0.1-1.2-3.7c2.4-3.4,5.1-3.6,6.7-3.7c12.6-0.2,13.7-0.2,19.9-0.4c0.5,0,1.6,0,2.6,0c1.4,0,4.4,0,2.1,3.4
		c-1.8,2.5-2.7,2.9-10.5,6.2c-4.2,1.8-7.5,3.4-9.4,4.3C322.6,43.1,324.2,42.8,326.2,42.8z M306.6,63.5c1.9-2.6,0.5-3.3-1.4-3.3
		c-2.2,0-4.6,1-5.7,2.5c-1.1,1.6,0.1,2.7,3.5,2.7c0.7,0,1.3-0.1,2.2-0.2C306.2,64.1,306.5,63.7,306.6,63.5z"/>
</g>
<g>
	<path class="st1" d="M34.5,27.8c-0.5,0.7-3.4,4-4,4.7c-1.7,2.1-7.3,8.8-12.8,16.5c-1.1,1.6-3.9,5.5-5.9,8.8
		C11.5,58.5,9,62.7,8.7,63c-1,1.4-3,3.7-6.7,3.7c-2.8,0-2.2-1.6-1.2-3.7c0.5-1.1,3.3-5.7,8.1-12.4c8.4-11.8,16.4-21.3,18.2-23.2
		c2.5-2.6,4.1-2.6,6-2.6C34,24.8,36.5,25.1,34.5,27.8z M38.6,63.4c-2.9,1-9.8,1.2-11.5,1.2c-8,0-15.1-1.3-9.1-9.7
		c0,0,5.8-8.1,11.1-8.1c1.9,0,3.6,1,2.2,3c-0.6,0.9-1,1.2-2.9,2.7c-1.3,1.1-1.9,1.6-2.2,2c-1.3,1.9,0.3,2.6,5.1,2.6
		c2.3,0,5-0.3,6.4-0.5c0.7-0.1,4.1-0.6,4.7-0.6c2.5,0,2.5,1.5,0.9,3.6C41.6,62.2,40.1,62.9,38.6,63.4z M55.4,35.4
		c-0.8,0-4.2,0-4.9,0c-2.1,0-7.8,0.1-12.1,0.3c-0.1,0-1.2,0.1-1.5,0.1c-2.3,0-3.1-1.1-1.2-3.8c2.3-3.2,4.6-3.5,5.6-3.7
		c1.2-0.2,7.3-0.5,15-0.5c1.5,0,5.3,0,6.2,0.3c1.3,0.3,0.9,1.8-0.3,3.5C59.8,35,57.2,35.4,55.4,35.4z"/>
	<path class="st1" d="M68,38.3c0.4-1,0.6-1.4,1-2c2-2.8,5.2-3.2,6.1-3.2c1.8,0,1.9,0.9,1.7,1.8c-0.1,0.7-0.5,1.5-2.1,4.9
		c1.6-0.4,3.9-1,4.8-1.3c0.1-0.3,0.3-0.7,0.5-1.7c0.3-1.3,0.6-1.8,0.9-2.2c1.6-2.3,4.6-2.9,5.6-2.9c0.5,0,2,0.1,1.8,1.6
		c-0.2,1.2-0.5,2.5-0.9,3.6c0.9,0,1.9-0.1,2.8-0.1c6.3,0,7.3,4.1,2.7,10.6c-2.2,3-5.6,6.5-9.2,8.7c-3.9,2.4-7.6,3-10.5,3
		c-0.5,0-4.3,0-5.1-1.5C67.8,57,68.2,56,68.9,55c1-1.4,2.9-3.1,5-3.1c0.6,0,0.9,0,2.5,0.4c0.4,0.1,0.9,0.1,1.3,0.1
		c1.4,0,4.8-0.1,8.4-5.1c2.3-3.2,1.1-4-0.9-4.2c-0.7,1.6-0.9,2.1-1.5,2.8c-2,2.8-4.8,3.3-6,3.3c-0.9,0-1.9-0.3-1.8-1.2
		c0.1-0.6,0.2-0.9,1.3-3.5c-2.6,0.7-3.8,1.1-5.3,1.5c-0.9,1.8-2.7,5.9-4.1,8.7c-0.9,2-3.8,8-4.9,9.6c-1.9,2.6-4.7,3.2-6.2,3.2
		c-2.9,0-1.8-2.1-0.9-3.8c2.9-5.3,3.7-6.9,7.5-15c-1.5,0.5-4.3,1.5-5.4,1.5c-2.1,0-1.9-1.9-0.7-3.7c1.4-2,2.7-2.7,9.1-4.6
		C66.6,41.7,67.7,38.9,68,38.3z"/>
	<path class="st1" d="M123.3,41.3c5.4,0,5.1,3.4,1.7,8.3c-0.7,1-4.3,5.5-4.9,6.5c-0.5,0.8-1.4,2-0.9,2.8c0.3,0.4,0.8,0.4,1.2,0.4
		c3.5,0,7.7-4.5,10.5-7.7c0.9-1.1,4.5-5.8,5.3-6.7c0.7-0.8,2.5-2.8,5.8-2.8c4,0,2,2.9,1,4.3c-2.6,3.7-6.9,8.7-10.7,12.2
		c-1.4,1.3-7.3,6.6-13.9,8c-2.1,0.4-3.5,0.4-4,0.4c-2.2,0-5.6-0.5-5.4-3.4c0.2-2.4,1.7-4.5,2.8-6c0.7-1,3.9-5.1,4.5-6
		c0.9-1.2,2.2-3.1-0.6-3.1c-1.2,0-5.3,0.6-12.7,7.7c-0.8,0.8-2.6,2.6-5.7,5.8c-2.5,2.7-4.3,4.5-7.2,4.5c-1.9,0-3.3-1.2-1.6-3.6
		c0.6-0.9,1.2-1.5,3.5-3.8c9-9,18.1-17.9,27.4-26.7c1.3-1.3,6.1-5.8,7-6.5c0.6-0.5,2.4-1.8,4.4-1.8c1,0,3.9,0.5,1.9,3.3
		c-0.8,1.1-1.6,1.8-6.4,6.2c-6.4,5.9-7.2,6.5-8.6,7.8c-0.5,0.5-1,0.9-2.2,2.1C118.1,42.3,120.4,41.3,123.3,41.3z"/>
	<path class="st1" d="M157.9,40.5c22.4-9.1,25.1-10.3,33.5-14.6c1.8-0.9,3.4-1.7,4.9-1.7c2,0,3.4,1.3,1.6,3.8
		c-1,1.4-2.2,2.5-7.1,4.8c-8.8,4-17.5,7.4-26.3,10.6c-2.9,1.1-3.9,1.5-4.4,2.2c-0.4,0.6-0.3,1.1,0.8,1.8c3.4,2.2,9.1,5.9,13.5,11
		c1.3,1.5,2.2,2.6,0.6,4.8c-1.3,1.8-4.7,4.2-7.2,4.2c-1.5,0-2.2-0.6-2.9-1.5c-3.7-5.3-4.8-7-9.8-11c-0.8-0.6-4.4-3.2-5.1-3.8
		c-1.3-1.2-1.7-2.7,0.1-5.2C152.4,42.7,155.7,41.4,157.9,40.5z M182.9,39.4c0-0.3,0.3-0.8,0.5-1.1c0.7-1,2.3-1.5,3-1.5
		c0.8,0,0.9,0.6,0.7,2.2c0,0.1-0.6,3.1-1.4,4.2c-0.9,1.2-2.4,1.6-3.1,1.6c-0.2,0-0.9,0-0.6-1c0-0.3,0.5-1.9,0.6-2.3
		C182.6,41.1,182.9,39.6,182.9,39.4z M189.7,36.7c0-0.2,0.2-0.5,0.5-0.9c0.7-1,2.3-1.5,3-1.5c0.9,0,0.9,0.6,0.7,2.1
		c-0.2,1.1-0.6,3.3-1.4,4.3c-0.8,1.2-2.3,1.6-3,1.6c-0.2,0-0.9,0-0.7-1c0-0.3,0.5-1.9,0.6-2.3C189.4,38.6,189.6,37,189.7,36.7z"/>
	<path class="st1" d="M228.9,38.7c2.5,0,4.8,0.5,6.5,1.6c3.2,2.1,2,6.9-1.5,11.7c-2.7,3.8-8.5,10-18,13.3c-4.6,1.6-8.8,2-12.6,2
		c-5.9,0-7.9-1.2-9-2.5c-1.2-1.3-0.8-3.7,1-6.2c4.2-5.9,11.2-8.6,16.7-8.6c3,0,9.2,0.8,4,8.1c-0.4,0.6-0.9,1.1-1.5,1.8
		c6.2-1.4,9.9-5.8,10.9-7.3c1.4-2,2.9-5.2,0.5-6.6c-1.3-0.8-3.5-0.9-4.8-0.9c-3.9,0-9.9,0.9-19.8,6.4c-5.3,2.9-5.7,3.1-6.9,3.1
		c-1.9,0-2.8-1.7-1.1-4.1c1.2-1.6,2.1-2.1,7.3-4.6c9.6-4.6,16.7-8.1,24.8-12.2c0.9-0.4,1.5-0.8,2.6-1.4c-2.2,0-13.1,0.8-14.2,0.8
		c-1.2,0-3.8-0.1-1.2-3.7c2.4-3.4,5.1-3.6,6.7-3.7c12.6-0.2,13.7-0.2,19.9-0.4c0.5,0,1.6,0,2.6,0c1.4,0,4.4,0,2.1,3.4
		c-1.8,2.5-2.7,2.9-10.5,6.2c-4.2,1.8-7.5,3.4-9.4,4.3C225.3,39,226.9,38.7,228.9,38.7z M209.3,59.3c1.9-2.6,0.5-3.3-1.4-3.3
		c-2.2,0-4.6,1-5.7,2.5c-1.1,1.6,0.1,2.7,3.5,2.7c0.7,0,1.3-0.1,2.2-0.2C208.9,60,209.2,59.6,209.3,59.3z"/>
	<path class="st1" d="M277.2,37.2c-0.3,9.1,0.6,13.6,1.9,17.8c0.7,2,0.8,3.1-0.3,4.7c-1.6,2.3-5.2,4.6-7.7,4.6
		c-1.5,0-2.4-0.4-3.1-5.1c-0.7-4.6-0.5-9.7-0.1-18c0.1-2.8-0.2-3.4-1-3.4c-1.1,0-2,0.6-6.9,4.4c-1.2,0.9-8.1,6.3-10.5,8
		c-2.9,2.2-4.5,3.1-6.1,3.1c-2,0-3.7-1.5-1.8-4.2c1.1-1.5,3-2.8,4.9-4.1c4.3-2.9,10.4-7.3,16.1-11.5c4.8-3.5,7.6-5.2,10.8-5.2
		C277.4,28.4,277.4,29.9,277.2,37.2z M285.6,29.7c0-0.2,0.2-0.5,0.4-0.8c0.8-1.1,2.4-1.5,3-1.5c0.8,0,0.9,0.6,0.6,2.3
		c-0.1,0.6-0.5,3-1.3,4.1c-0.9,1.3-2.5,1.6-3.1,1.6c-0.8,0-0.8-0.4-0.7-1.1c0-0.3,0.5-1.9,0.6-2.2C285.2,31.7,285.5,30.2,285.6,29.7
		z M291.8,28.8c0.1-0.2,0.2-0.6,0.4-0.9c0.7-1,2.3-1.5,3-1.5s0.9,0.4,0.7,2.2c-0.1,0.5-0.5,3.1-1.3,4.2s-2.2,1.6-3.1,1.6
		c-0.2,0-0.9,0-0.7-1c0-0.3,0.5-2,0.6-2.3S291.7,29.1,291.8,28.8z"/>
	<path class="st1" d="M325.2,38.7c2.5,0,4.8,0.5,6.5,1.6c3.2,2.1,2,6.9-1.5,11.7c-2.7,3.8-8.5,10-18,13.3c-4.6,1.6-8.8,2-12.6,2
		c-5.9,0-7.9-1.2-9-2.5c-1.2-1.3-0.8-3.7,1-6.2c4.2-5.9,11.2-8.6,16.7-8.6c3,0,9.2,0.8,4,8.1c-0.4,0.6-0.9,1.1-1.5,1.8
		c6.2-1.4,9.9-5.8,10.9-7.3c1.4-2,2.9-5.2,0.5-6.6c-1.3-0.8-3.5-0.9-4.8-0.9c-3.9,0-9.9,0.9-19.8,6.4c-5.3,2.9-5.7,3.1-6.9,3.1
		c-1.9,0-2.8-1.7-1.1-4.1c1.2-1.6,2.1-2.1,7.3-4.6c9.6-4.6,16.7-8.1,24.8-12.2c0.9-0.4,1.5-0.8,2.6-1.4c-2.2,0-13.1,0.8-14.2,0.8
		c-1.2,0-3.8-0.1-1.2-3.7c2.4-3.4,5.1-3.6,6.7-3.7c12.6-0.2,13.7-0.2,19.9-0.4c0.5,0,1.6,0,2.6,0c1.4,0,4.4,0,2.1,3.4
		c-1.8,2.5-2.7,2.9-10.5,6.2c-4.2,1.8-7.5,3.4-9.4,4.3C321.6,39,323.2,38.7,325.2,38.7z M305.6,59.3c1.9-2.6,0.5-3.3-1.4-3.3
		c-2.2,0-4.6,1-5.7,2.5c-1.1,1.6,0.1,2.7,3.5,2.7c0.7,0,1.3-0.1,2.2-0.2C305.2,60,305.5,59.6,305.6,59.3z"/>
</g>
<rect x="0.5" y="79.5" class="st2" width="342" height="1.8"/>
<g>
	<path class="st0" d="M115.4,98.2V98l-5.8,9.2c-0.3,0.5-1,1.4-2.4,1.4c-1.1,0-1.2-0.5-0.7-1.4l7.4-11.9c0.5-0.7,1.2-1.5,3.2-1.5
		c1.1,0,1.5,0.3,1.4,1.2l-1.7,9.3v0.2l5.8-9.3c0.3-0.5,1-1.4,2.3-1.4c1.1,0,1.2,0.5,0.6,1.4l-7.4,11.9c-0.5,0.7-1.2,1.5-3.2,1.5
		c-1.2,0-1.5-0.3-1.4-1.2L115.4,98.2z"/>
	<path class="st0" d="M132.9,98.5c0.5-0.5,1.1-0.9,1.8-0.9c0.8,0,1.2,0.6,0.8,1.2c-0.1,0.2-0.3,0.5-0.6,0.7l-9.4,8.9
		c-1,0.9-2.5,2.4-4.9,2.4c-0.4,0-1.5,0-0.7-1.3c0.7-1.1,1.6-1.1,1.8-1.1c1,0,1.5-0.3,1.9-0.8l0.6-0.6l1-7.5c0-0.1,0.1-0.4,0.2-0.6
		c0.4-0.7,1.6-1.3,2.5-1.3c0.4,0,0.8,0.1,0.6,0.9l-0.9,5.2L132.9,98.5z"/>
	<path class="st0" d="M141.1,106.5c-0.1,0.2-0.5,1.1-0.6,1.3c-0.5,0.8-1.6,0.9-2,0.9c-1.1,0-1.1-0.4-0.8-1.2
		c-0.5,0.4-1.9,1.2-3.8,1.2c-3.3,0-1.9-2.6-1.4-3.3c1.7-2.7,4.4-3.1,6.2-3.3c2.1-0.3,2.6-0.3,3.1-1.1c0.3-0.5,0.3-1.1-0.9-1.1
		c-1.3,0-1.8,0.4-2.8,1.3c-0.2,0.2-0.9,0.6-1.6,0.6c-0.4,0-1.4-0.1-0.7-1.1c0.4-0.7,2.6-3.1,6.6-3.1c1,0,4.3,0.1,2.2,3.4
		L141.1,106.5z M140.1,103.5c-0.6,0.2-0.8,0.2-1.9,0.4c-1.2,0.2-2.2,0.4-2.9,1.5c-0.7,1.2,0.3,1.2,0.6,1.2c0.9,0,2.6-0.6,3.6-2.1
		L140.1,103.5z"/>
	<path class="st0" d="M152.3,107.3c-0.5,0.8-1.2,1.3-2.2,1.3c-0.9,0-1.3-0.3-0.7-1.3l3.3-5.2c0.3-0.5,1.3-2.1-0.2-2.1
		c-1.1,0-2.4,0.9-3.2,2.1l-3.2,5.1c-0.3,0.5-1,1.3-2.2,1.3c-0.9,0-1.3-0.3-0.6-1.3l5.2-8.4c0.3-0.5,1-1.3,2.2-1.3
		c0.7,0,1.4,0.2,0.7,1.3c0.7-0.4,2.1-1.3,3.6-1.3c1.8,0,2.7,1,0.9,3.9L152.3,107.3z"/>
	<path class="st0" d="M168.1,100.8c-0.2,0.3-1.8,2.8-6.2,2.8c-1,0-1.6-0.1-1.8-0.2c-0.2,0.1-0.4,0.2-0.5,0.4c-0.3,0.5,0,0.5,2,0.7
		c2.2,0.1,3.4,0.2,3.8,0.8c0.4,0.6,0.2,1.4-0.3,2.1c-2.1,3.4-6.6,3.4-7.5,3.4c-2.8,0-5.1-0.6-3.6-3c0.6-1,1.7-1.8,2.7-2.2
		c-0.2-0.3-0.4-0.6,0.1-1.3c0.2-0.4,0.8-1,2.1-1.6c-0.1-0.3-0.3-0.8,0.4-2c1.9-3,5.5-3,6.3-3c2.1,0,2.5,0.4,2.7,0.7
		c1.2-0.7,2-0.7,2.1-0.7c0.6,0,0.7,0.3,0.1,1.3c-0.2,0.3-0.7,1-1.4,1.1c-0.5,0-0.6,0-0.8,0.1C168.4,100.2,168.3,100.4,168.1,100.8z
		 M157.2,107.5c-0.8,1.3,1.4,1.3,1.9,1.3c1.3,0,2.5-0.3,3-1.2c0.3-0.5,0.1-0.7-0.1-0.8c-0.5-0.2-2.6-0.3-3.4-0.3
		C158.2,106.7,157.6,106.9,157.2,107.5z M162.3,100.6c-0.5,0.8,0.1,1.1,0.8,1.1c0.8,0,1.7-0.3,2.2-1.1c0.5-0.8,0-1.1-0.8-1.1
		C163.8,99.5,162.8,99.8,162.3,100.6z"/>
	<path class="st0" d="M170.2,107.3c-0.3,0.5-1,1.3-2.2,1.3c-0.9,0-1.3-0.3-0.7-1.3l7.5-12.1c0.3-0.5,1-1.3,2.2-1.3
		c0.9,0,1.3,0.3,0.7,1.3L170.2,107.3z"/>
	<path class="st0" d="M177.3,104c-0.9,1.5-0.4,2.3,0.7,2.3c1.2,0,1.8-0.5,2.3-0.9c0.6-0.5,1-0.9,1.9-0.9c0.5,0,1.4,0.2,0.7,1.1
		c-0.4,0.7-3,3.1-6.5,3.1c-3.7,0-3.5-2.7-1.7-5.5c1.9-3.1,5.2-5.5,8.4-5.5c3.8,0,2.8,3.3,1.9,4.8c-1,1.6-2.5,1.6-3,1.6L177.3,104
		L177.3,104z M181.8,101.9c0.3,0,0.6-0.1,0.8-0.4c0.3-0.5,0.4-1.5-0.8-1.5c-0.3,0-1.5,0-3.1,1.9H181.8z"/>
	<path class="st0" d="M191.8,108.3c-1.7,0-2-0.6-0.9-2.4l5.7-9.1c1.1-1.8,2.3-2.4,4-2.4h4.4c2.9,0,3.4,1.7,2.2,3.6
		c-0.3,0.4-1.2,2-3.7,2.9c1.4,0.6,1.1,2.1,0.2,3.4c-1.3,2.1-4.1,4.1-7.2,4.1L191.8,108.3L191.8,108.3z M197.6,99.9h3.5
		c1.5,0,2.4-1,2.7-1.5c0.4-0.6,0.6-1.4-0.8-1.4h-3c-0.4,0-0.7,0.2-0.9,0.6L197.6,99.9z M196.1,102.4l-1.7,2.8
		c-0.2,0.4-0.2,0.6,0.2,0.6h3c0.6,0,2.3-0.2,3.2-1.7c0.8-1.3-0.1-1.6-1.2-1.6h-3.5V102.4z"/>
	<path class="st0" d="M208.5,104c-0.9,1.5-0.4,2.3,0.7,2.3c1.2,0,1.8-0.5,2.3-0.9c0.6-0.5,1-0.9,1.9-0.9c0.5,0,1.4,0.2,0.7,1.1
		c-0.4,0.7-3,3.1-6.5,3.1c-3.7,0-3.5-2.7-1.7-5.5c1.9-3.1,5.2-5.5,8.4-5.5c3.8,0,2.8,3.3,1.9,4.8c-1,1.6-2.5,1.6-3,1.6L208.5,104
		L208.5,104z M213,101.9c0.3,0,0.6-0.1,0.8-0.4c0.3-0.5,0.4-1.5-0.8-1.5c-0.3,0-1.5,0-3.1,1.9H213z"/>
	<path class="st0" d="M218.1,107.3c-0.3,0.5-1,1.3-2.2,1.3c-0.9,0-1.3-0.3-0.7-1.3l7.5-12.1c0.3-0.5,1-1.3,2.2-1.3
		c0.9,0,1.3,0.3,0.7,1.3L218.1,107.3z"/>
	<path class="st0" d="M223.9,107.3c-0.3,0.5-1,1.3-2.2,1.3c-0.9,0-1.3-0.3-0.7-1.3l7.5-12.1c0.3-0.5,1-1.3,2.2-1.3
		c0.9,0,1.3,0.3,0.7,1.3L223.9,107.3z"/>
	<path class="st0" d="M239.7,99.2c0,0.2,0,0.8-0.3,1.4c-0.4,0.7-1.2,1-2.1,1c-0.9,0-1-0.3-0.9-0.7c0.2-0.5,0.3-1.1-1.1-1.1
		c-0.8,0-1.7,0.3-2.1,0.9c-0.4,0.6,0.2,0.7,1.1,1c2.1,0.6,2.7,0.8,3,1.4c0.2,0.5,0.1,1.2-0.4,2c-1.7,2.7-4.7,3.6-7,3.6
		c-3.6,0-3.6-2-2.9-3.1c0.4-0.7,1.2-1.2,2.1-1.2c0.9,0,0.9,0.3,0.7,1.1c-0.1,0.6,0.2,0.9,1.5,0.9c1.2,0,2-0.3,2.4-0.9
		s0.2-0.6-1.9-1.2c-1.8-0.5-3-1.1-1.7-3.2c1.3-2,3.8-3.4,6.5-3.4C238.1,97.6,239.6,97.9,239.7,99.2z"/>
</g>
<g>
	<path class="st3" d="M100.7,3c0,0.6-0.4,0.9-1,0.9c-0.7,0-0.9-0.3-0.9-0.6c-0.1-0.4-0.4-1.4-2.1-1.4c-0.6,0-1.4,0.1-2,0.9
		c-0.4,0.7-0.6,1.5-0.6,2.4s0.2,3.3,2.5,3.3c1.8,0,2-0.9,2.2-1.4c0.1-0.5,0.2-0.8,1-0.8c0.7,0,1,0.4,1,0.9c0,0.9-0.9,3.2-4.1,3.2
		c-3.4,0-4.7-2.5-4.7-5.1C91.9,2.2,93.5,0,96.6,0S100.7,2.2,100.7,3z"/>
	<path class="st3" d="M103.7,9.6c-0.1,0.2-0.2,0.7-0.8,0.7c-0.5,0-1.3-0.3-1.3-0.9c0,0,0-0.3,0.1-0.5l2.8-7.5
		c0.3-0.9,0.8-1.4,1.8-1.4c0.8,0,1.5,0.2,1.9,1.4l2.8,7.5c0,0.1,0.1,0.3,0.1,0.5c0,0.7-0.9,0.9-1.3,0.9s-0.6-0.3-0.7-0.7L108.5,8
		h-4.2L103.7,9.6z M105,6.3h2.9l-1.1-3.1c-0.1-0.3-0.2-0.3-0.3-0.3c-0.1,0-0.2,0.1-0.3,0.3L105,6.3z"/>
	<path class="st3" d="M112.6,2.1c-0.6,0-0.9-0.3-0.9-0.9s0.3-0.9,0.9-0.9h6c0.5,0,0.9,0.2,0.9,0.9c0,0.5-0.2,0.9-0.9,0.9h-2v7.2
		c0,0.3,0,1-1,1c-0.6,0-1.1-0.2-1.1-1V2.1H112.6z"/>
	<path class="st3" d="M133.4,3c0,0.6-0.4,0.9-1,0.9c-0.7,0-0.9-0.3-0.9-0.6c-0.1-0.4-0.4-1.4-2.1-1.4c-0.6,0-1.4,0.1-2,0.9
		c-0.4,0.7-0.6,1.5-0.6,2.4s0.2,3.3,2.5,3.3c1.8,0,2-0.9,2.2-1.4c0.1-0.5,0.2-0.8,1-0.8c0.7,0,1,0.4,1,0.9c0,0.9-0.9,3.2-4.1,3.2
		c-3.4,0-4.7-2.5-4.7-5.1c0-2.9,1.6-5.2,4.7-5.2C132.3,0,133.4,2.2,133.4,3z"/>
	<path class="st3" d="M141.1,3.9V1c0-0.3,0.1-1,1-1c0.7,0,1.1,0.3,1.1,1v8.3c0,0.3,0,1-1,1c-0.7,0-1.1-0.3-1.1-1V5.7h-3.9v3.6
		c0,0.3-0.1,1-1,1c-0.8,0-1.1-0.3-1.1-1V1c0-0.3,0.1-1,1-1c0.8,0,1.1,0.3,1.1,1v3L141.1,3.9L141.1,3.9z"/>
	<path class="st3" d="M147.5,9.3c0,0.3-0.1,1-1,1c-0.8,0-1.1-0.3-1.1-1V2c0-1.3,0.6-1.7,1.7-1.7h2.7c1.3,0,1.8,0.2,2.4,0.6
		c0.6,0.5,1,1.2,1,2.1c0,0.2,0,1.7-1.3,2.3c1,0.5,1,1.4,1,3c0,0.2,0.1,1,0.1,1.1c0,0.3-0.1,0.8-1.1,0.8c-0.8,0-1.1-0.3-1.1-2.2
		c0-1,0-1.8-1.3-1.8h-2L147.5,9.3L147.5,9.3z M147.5,4.5h2.2c0.9,0,1.5-0.6,1.5-1.3c0-1.2-1.1-1.2-1.4-1.2H148
		c-0.3,0-0.4,0.1-0.4,0.4v2.1H147.5z"/>
	<path class="st3" d="M157,9.3c0,0.3-0.1,1-1,1c-0.7,0-1.1-0.3-1.1-1V1c0-0.3,0.1-1,1-1c0.7,0,1.1,0.3,1.1,1V9.3z"/>
	<path class="st3" d="M166.5,2.7c0,0.6-0.6,0.8-1,0.8c-0.5,0-0.9-0.2-1-0.5c-0.3-0.6-0.4-1.1-1.7-1.1c-0.3,0-1.7,0-1.7,0.9
		c0,0.7,0.4,0.9,2.5,1.6c2,0.7,3.1,1.2,3.1,2.9c0,1.4-1.1,3.1-3.8,3.1c-3.3,0-4.2-2.1-4.2-2.8c0-0.8,0.9-0.9,1.1-0.9
		c0.8,0,0.9,0.3,1,0.8c0.3,0.9,1.3,1,1.9,1c0.3,0,1.7,0,1.7-1.1c0-0.5-0.3-0.7-2.1-1.4c-2.1-0.7-3.5-1.2-3.5-3.1c0-1.5,1.1-3,3.7-3
		C165.5,0,166.5,1.8,166.5,2.7z"/>
	<path class="st3" d="M168.6,2.1c-0.6,0-0.9-0.3-0.9-0.9s0.3-0.9,0.9-0.9h6c0.5,0,0.9,0.2,0.9,0.9c0,0.5-0.2,0.9-0.9,0.9h-2v7.2
		c0,0.3,0,1-1,1c-0.6,0-1.1-0.2-1.1-1V2.1H168.6z"/>
	<path class="st3" d="M184.5,2.6L184.5,2.6l-1.6,6.8c-0.2,0.8-0.7,0.9-1.1,0.9c-0.5,0-1.1-0.1-1.2-0.9L179,2.6l0,0l0,0v2v4.7
		c0,0.3-0.1,1-1,1c-0.8,0-1.1-0.3-1.1-1V1.1c0-0.9,0.5-1.1,1.4-1.1c1.2,0,1.5,0.3,1.6,0.9l1.7,7.2c0,0.1,0.1,0.2,0.1,0.2
		c0.1,0,0.1-0.1,0.1-0.2l1.7-7.2c0.1-0.4,0.3-0.9,1.5-0.9c1.4,0,1.6,0.5,1.6,1.1v8.2c0,0.3-0.1,1-1,1c-0.8,0-1.1-0.3-1.1-1V4.7
		L184.5,2.6z"/>
	<path class="st3" d="M190,9.6c-0.1,0.2-0.2,0.7-0.8,0.7c-0.5,0-1.3-0.3-1.3-0.9c0,0,0-0.3,0.1-0.5l2.8-7.5c0.3-0.9,0.8-1.4,1.8-1.4
		c0.8,0,1.5,0.2,1.9,1.4l2.8,7.5c0,0.1,0.1,0.3,0.1,0.5c0,0.7-0.9,0.9-1.3,0.9c-0.4,0-0.6-0.3-0.7-0.7L194.7,8h-4.2L190,9.6z
		 M191.2,6.3h2.9L193,3.2c-0.1-0.3-0.2-0.3-0.3-0.3s-0.2,0.1-0.3,0.3L191.2,6.3z"/>
	<path class="st3" d="M206,2.7c0,0.6-0.6,0.8-1,0.8c-0.5,0-0.9-0.2-1-0.5c-0.3-0.6-0.4-1.1-1.7-1.1c-0.3,0-1.7,0-1.7,0.9
		c0,0.7,0.4,0.9,2.5,1.6c2,0.7,3.1,1.2,3.1,2.9c0,1.4-1.1,3.1-3.8,3.1c-3.3,0-4.2-2.1-4.2-2.8c0-0.8,0.9-0.9,1.1-0.9
		c0.8,0,0.9,0.3,1,0.8c0.3,0.9,1.3,1,1.9,1c0.3,0,1.7,0,1.7-1.1c0-0.5-0.3-0.7-2.1-1.4c-1.9-0.7-3.3-1.2-3.3-3c0-1.5,1.1-3,3.7-3
		C205.1,0,206,1.8,206,2.7z"/>
	<path class="st3" d="M219.4,2.7c0,0.6-0.6,0.8-1,0.8c-0.5,0-0.9-0.2-1-0.5c-0.3-0.6-0.4-1.1-1.7-1.1c-0.3,0-1.7,0-1.7,0.9
		c0,0.7,0.4,0.9,2.5,1.6c2,0.7,3.1,1.2,3.1,2.9c0,1.4-1.1,3.1-3.8,3.1c-3.3,0-4.2-2.1-4.2-2.8c0-0.8,0.9-0.9,1.1-0.9
		c0.8,0,0.9,0.3,1,0.8c0.3,0.9,1.3,1,1.9,1c0.3,0,1.7,0,1.7-1.1c0-0.5-0.3-0.7-2.1-1.4c-2.1-0.7-3.5-1.2-3.5-3.1c0-1.5,1.1-3,3.7-3
		C218.4,0,219.4,1.8,219.4,2.7z"/>
	<path class="st3" d="M230.5,5.1c0,3.5-2.2,5.2-4.8,5.2s-4.8-1.6-4.8-5.2c0-3.4,2.1-5.1,4.8-5.1C228.4,0,230.5,1.8,230.5,5.1z
		 M223.1,5.1c0,2.5,1.3,3.3,2.6,3.3c1.2,0,2.6-0.7,2.6-3.3c0-2.5-1.3-3.3-2.6-3.3C224.5,1.8,223.1,2.6,223.1,5.1z"/>
	<path class="st3" d="M234.4,3l-0.1-0.1v6.5c0,0.3-0.1,1-1,1c-0.8,0-1.1-0.3-1.1-1V1c0-0.5,0.2-1,1.6-1c0.8,0,1.2,0.2,1.5,0.8
		l2.9,6.5l0.1,0.1V1c0-0.3,0.1-1,1-1c0.7,0,1.1,0.3,1.1,1v8.3c0,0.5-0.2,1-1.6,1c-0.8,0-1.2-0.2-1.5-0.8L234.4,3z"/>
	<path class="st3" d="M248,6.4c-0.7,0-0.9-0.3-0.9-0.8c0-0.6,0.3-0.8,0.9-0.8h1.5c1.1,0,1.7,0.4,1.7,1.7v3.1c0,0.2-0.1,0.8-0.8,0.8
		c-0.2,0-0.9,0-0.9-0.8V9.1c-1,1.1-2,1.2-2.7,1.2c-2.7,0-4.7-2-4.7-5.1c0-2.9,1.7-5.2,4.8-5.2c2.7,0,4.2,1.9,4.2,3
		c0,0.1,0,0.9-1,0.9c-0.7,0-0.9-0.3-1-0.7c-0.2-0.5-0.4-0.8-0.6-0.9c-0.4-0.3-1-0.5-1.7-0.5c-2.3,0-2.7,2.1-2.7,3.3
		c0,2.6,1.4,3.3,2.5,3.3c1.6,0,2.2-1.5,2.2-1.8c0-0.2-0.1-0.3-0.3-0.3L248,6.4L248,6.4z"/>
</g>
</svg>
