<!-- Generator: Adobe Illustrator 22.0.1, SVG Export Plug-In  -->
<svg version="1.1"
	 xmlns="http://www.w3.org/2000/svg" xmlns:xlink="http://www.w3.org/1999/xlink" xmlns:a="http://ns.adobe.com/AdobeSVGViewerExtensions/3.0/"
	 x="0px" y="0px" width="94.9px" height="27.5px" viewBox="0 0 94.9 27.5" style="enable-background:new 0 0 94.9 27.5;"
	 xml:space="preserve">
<style type="text/css">
	.st0{fill:#FFFF00;}
</style>
<defs>
</defs>
<g>
	<path class="st0" d="M5.6,24.9c0,0.9-0.2,2.6-2.8,2.6c-2,0-2.9-0.8-2.9-2.6V5.3c0-3.4,1.5-4.5,4.5-4.5h6.1c3.9,0,5.1,0.7,5.7,1.1
		c1.9,1.2,3.9,3.5,3.9,7.3c0,3.5-1.7,6.1-3.7,7.4c-1.5,1-4,1.2-5.9,1.2H5.6V24.9z M5.6,12.9h4.8c3,0,4.1-1.5,4.1-3.7
		c0-2.7-1.8-3.7-4.1-3.7H6.7C6,5.5,5.6,5.9,5.6,6.6V12.9z"/>
	<path class="st0" d="M30.5,20.9c0,0.7,0.4,1.1,1.1,1.1h9.3c1.5,0,2.5,0.7,2.5,2.4c0,1.7-0.9,2.4-2.5,2.4H29.5
		c-3.1,0-4.5-1.2-4.5-4.5V2.6c0-0.9,0.2-2.6,2.8-2.6c2,0,2.9,0.9,2.9,2.6V20.9z"/>
	<path class="st0" d="M50.8,25.7c-0.2,0.5-0.6,1.8-2,1.8c-1.3,0-3.4-0.9-3.4-2.4c0-0.1,0-0.7,0.2-1.3L53,3.7C53.8,1.3,55.2,0,57.9,0
		c2,0,3.9,0.5,5,3.7l7.4,20.1c0.1,0.2,0.2,0.7,0.2,1.2c0,1.8-2.5,2.5-3.5,2.5c-1.1,0-1.7-0.9-2-1.8l-1.6-4.3H52.4L50.8,25.7z
		 M54.2,16.7h7.6l-3-8.3c-0.3-0.8-0.5-0.9-0.8-0.9c-0.3,0-0.5,0.2-0.8,0.9L54.2,16.7z"/>
	<path class="st0" d="M89.5,1.5c1-1.5,2-1.5,2.4-1.5c1.8,0,3,1.6,3,2.7c0,0.5-0.2,1.1-0.5,1.5l-8.1,12.3v8.4c0,0.9-0.2,2.6-2.8,2.6
		c-2,0-2.9-0.9-2.9-2.6v-8.4L72.5,4.2C72.4,4.1,72,3.4,72,2.8c0-1.1,1.2-2.8,3-2.8c1,0,1.8,0.7,2.3,1.5l6.1,9.4L89.5,1.5z"/>
</g>
</svg>
